<?xml version="1.0" encoding="UTF-8" standalone="no"?>
<svg
   xmlns:dc="http://purl.org/dc/elements/1.1/"
   xmlns:cc="http://creativecommons.org/ns#"
   xmlns:rdf="http://www.w3.org/1999/02/22-rdf-syntax-ns#"
   xmlns:svg="http://www.w3.org/2000/svg"
   xmlns="http://www.w3.org/2000/svg"
   xmlns:sodipodi="http://sodipodi.sourceforge.net/DTD/sodipodi-0.dtd"
   xmlns:inkscape="http://www.inkscape.org/namespaces/inkscape"
   viewBox="0 0 24 24"
   fill="black"
   width="18px"
   height="18px"
   version="1.1"
   id="svg3449"
   sodipodi:docname="add_circle.svg"
   inkscape:version="1.0 (6e3e5246a0, 2020-05-07)">
  <metadata
     id="metadata3455">
    <rdf:RDF>
      <cc:Work
         rdf:about="">
        <dc:format>image/svg+xml</dc:format>
        <dc:type
           rdf:resource="http://purl.org/dc/dcmitype/StillImage" />
        <dc:title />
      </cc:Work>
    </rdf:RDF>
  </metadata>
  <defs
     id="defs3453">
    <clipPath
       clipPathUnits="userSpaceOnUse"
       id="clipPath3469">
      <path
         id="path3471"
         style="fill:#ff0000;fill-opacity:1;fill-rule:nonzero;stroke:none;stroke-width:1.33333"
         d="M -22.596355,-6.2734373 V 17.776041 H 0.55989583 C 0.48095453,17.383193 0.4989092,16.980655 0.47135415,16.583333 0.35086752,14.846016 0.78566753,13.593212 1.4557292,12.861979 V -6.2734373 Z" />
    </clipPath>
    <clipPath
       clipPathUnits="userSpaceOnUse"
       id="clipPath3714">
      <path
         id="path3716"
         style="fill:#ff0000;fill-opacity:1;fill-rule:nonzero;stroke:none;stroke-width:1.33333"
         d="M 2,0.99999997 V 1.3359375 C 2.1079261,1.2130467 2.2170759,1.0962462 2.3359375,0.99999997 Z m 3.158854,0 C 5.4205604,1.2119124 5.6450833,1.5115651 5.846354,1.8515625 5.8986803,1.7160083 5.9434572,1.5776635 5.9973957,1.4427083 6.0605363,1.2847295 6.1317421,1.1443107 6.2005207,0.99999997 Z m 9.752605,0 c 0.08408,0.73870323 -0.05435,1.64553173 -0.513022,2.69010403 -0.360309,0.8205616 -0.703221,1.6526132 -0.966145,2.5104167 -0.02801,0.091381 -0.04211,0.1865638 -0.06771,0.2786458 -0.03618,0.13008 -0.07774,0.2588951 -0.117188,0.3880208 -0.06672,0.2371376 -0.155155,0.4076827 -0.234375,0.65625 -0.0061,0.018993 0.0089,0.040304 0.0052,0.059896 -0.0059,0.031383 -0.0216,0.083829 -0.03125,0.125 -0.0012,0.1486016 0.0144,0.2971426 0.0052,0.4453124 0.01091,-0.172871 -0.0035,-0.278665 -0.02865,-0.3567708 -0.01043,0.041516 -0.01726,0.071387 -0.02865,0.114584 0.159045,1.0797691 -0.09242,1.3912251 -0.570326,1.2838534 -0.298228,0.5221012 -0.570398,0.6562358 -1.354167,0.4479166 -0.08708,0.1039216 -0.16658,0.2087858 -0.255208,0.3098959 -0.06706,0.5647822 -0.248308,1.1891052 -0.572917,1.8645832 0.177981,0.221775 0.372576,0.518331 0.575521,0.856771 0.236197,-0.471798 0.42134,-0.820426 0.710938,-1.442708 0.02997,-0.0644 0.08244,-0.0992 0.148437,-0.111979 0.143045,-0.02769 0.32919,0.05742 0.5,0.143229 0.180221,-0.0023 0.359121,-0.01152 0.539063,-0.0026 0.05383,0.0027 0.107572,0.0098 0.161458,0.01303 0.164358,-0.184187 0.3207,-0.350885 0.510417,-0.583334 -0.06945,-0.419952 0.03393,-0.527947 0.453126,-0.554687 0.0052,-0.0069 0.0076,-0.01132 0.01307,-0.01823 -6.1e-5,0.0059 6.7e-5,0.0097 0,0.01563 0.232223,-0.01362 0.532656,-0.01343 1.007812,-0.01823 0.0035,-5.4e-5 0.0065,1.54e-4 0.0104,0 0.07768,-0.04722 0.159424,-0.07996 0.247396,-0.0651 0.251326,-0.088286 0.504759,-0.165637 0.773438,-0.2031246 0.404597,-0.032925 0.894745,-0.079756 1.40625,-0.1406249 0.244555,-0.5343164 0.44923,-0.8178871 0.601562,-0.7916667 0.149712,0.025768 0.256292,0.3068036 0.34375,0.7109375 0.118067,-0.00723 0.246454,-0.027757 0.359375,-0.028645 2.751579,-0.021679 3.940831,1.7747207 3.3125,3.3437497 0.370012,0.470575 0.543751,0.997865 0.476563,1.523437 0.02633,0.05501 0.05383,0.109307 0.08073,0.164063 0.05507,0.240119 0.122413,0.479011 0.166667,0.721355 0.103866,0.56884 0.108653,1.148145 0.09896,1.723958 0.0061,0.288963 0.02021,0.781887 -0.0027,0.986979 -0.03089,0.297013 -0.08649,0.591152 -0.161457,0.880208 -0.15836,0.610659 -0.477907,1.183884 -0.807292,1.716147 -0.303475,0.46978 0.0037,-0.01147 -0.296875,0.484374 -0.180884,0.299 -0.399915,0.57334 -0.601563,0.859375 H 23 V 0.99999997 Z M 13.794271,10.132812 c -0.0047,2.71e-4 -0.0084,0.0023 -0.01307,0.0026 -0.167789,0.22039 -0.302043,0.369574 -0.453126,0.554688 0.02012,0.121657 0.07737,0.45303 0.114583,0.635416 0.07281,0.0074 0.146214,0.0097 0.21875,0.01823 0.02916,0.0034 0.05724,0.01253 0.08593,0.01823 0.02407,-0.37206 0.04184,-0.773579 0.04688,-1.229167 z m -3.036459,2.541667 c -0.02812,0.05617 -0.04012,0.0847 -0.0651,0.135417 0.0454,-0.01806 0.08787,-0.03165 0.117188,-0.04167 -0.01729,-0.03001 -0.03513,-0.06548 -0.05208,-0.09375 z m 3.851563,-2.463542 c -0.01133,0.0022 -0.02257,0.0053 -0.03385,0.0078 -0.01353,0.0031 -0.04953,0.02293 -0.03645,0.01823 0.02357,-0.0084 0.04681,-0.0175 0.07031,-0.02604 z m -2.208334,1.197917 c 0.06322,0.03919 0.128623,0.08137 0.192709,0.122396 0.01207,-0.01301 0.02684,-0.03361 0.03906,-0.04687 -0.07237,-0.02588 -0.143491,-0.05232 -0.231771,-0.07552 z m -5.8828119,0.395833 c -0.039411,0.04752 -0.081823,0.09282 -0.117188,0.143229 -0.018425,0.02626 -0.027052,0.05836 -0.039063,0.08854 0,0 0,0.0026 0,0.0026 0.00505,0.0308 0.00376,0.05664 -0.020833,0.05729 -3.039e-4,0.719219 -0.033083,0.873581 -0.3880208,0.791666 -0.00367,0.0077 -0.00676,0.01569 -0.010413,0.02344 -0.031004,0.06557 -0.060605,0.13201 -0.091145,0.197916 0.1589996,-0.03309 0.305964,-0.05055 0.4166667,-0.02604 0.072101,0.01596 0.1203146,0.06011 0.15625,0.119792 0.058147,0.0042 0.100596,0.0027 0.1614582,0.0078 0.2123576,0.03801 -0.023784,5.05e-4 0.4635418,0.02865 0.3235716,0.01868 0.6465364,0.05963 0.9687498,0.09635 0.1088747,-0.0023 0.2166915,-0.0056 0.3255208,-0.0026 0.2560247,0.0071 0.5096696,0.04601 0.7630208,0.09115 0.039047,-0.238899 0.084217,-0.479992 0.093749,-0.713542 0.00765,-0.187308 0.024832,-0.327637 0.041667,-0.471354 C 8.0456721,11.953909 7.2107572,11.85091 6.5182291,11.804687 Z m -0.093749,1.398438 c -0.2462317,-0.01788 -0.4234601,-0.0014 -0.6197917,0.0052 -0.084341,0.183207 -0.1678871,0.366859 -0.2526041,0.549479 -0.1162174,0.273697 -0.2413312,0.543125 -0.3489583,0.820313 -0.015127,0.03896 -0.023155,0.08016 -0.036459,0.119787 -1.488e-4,0.0052 1.824e-4,0.0104 0,0.01563 -6.74e-5,0.0019 -0.00245,0.0032 -0.0026,0.0052 0.2230279,0.303808 0.4031875,0.678546 0.5208334,1.125 0.1778053,0.07813 0.3336824,0.1561 0.5104166,0.234376 0.095196,-0.09736 0.1896034,-0.195656 0.2838542,-0.294271 0.099728,-0.838876 0.1477318,-1.675716 -0.013027,-2.497396 -0.00709,-0.03626 -0.026044,-0.05739 -0.041667,-0.08333 z m -1.2578132,1.494792 c 0.00537,-0.187885 -0.011453,-0.374749 -0.026041,-0.562501 -0.00973,0.172941 -0.023735,0.345541 -0.036459,0.518229 0.017903,0.02269 0.039924,0.03893 0.057292,0.06249 0.00204,-0.006 0.0032,-0.01227 0.00521,-0.01823 z M 2,14.044271 v 0.252604 C 2.076977,14.240445 2.1582781,14.209025 2.2369792,14.161459 2.1691455,14.130408 2.0636673,14.072257 2,14.044271 Z m 0,7.84375 V 22 h 0.6796873 c 0.036725,-0.01547 0.072748,-0.04373 0.1093747,-0.06249 -0.063109,0.01447 -0.125836,0.03119 -0.190104,0.03907 -0.1850433,0.02261 -0.3721389,-0.01107 -0.5572917,-0.07552 -0.0118,-0.002 -0.029592,-0.01067 -0.041667,-0.01307 z m 0.8437499,0.02084 c -0.011453,1.91e-4 -0.022391,0.0023 -0.033855,0.0027 0.016201,-0.0011 0.014789,0.0032 0.028645,0 0.00165,-9.24e-4 0.00373,-6.16e-4 0.00521,-0.0027 z" />
    </clipPath>
  </defs>
  <sodipodi:namedview
     inkscape:document-rotation="0"
     pagecolor="#ffffff"
     bordercolor="#666666"
     borderopacity="1"
     objecttolerance="10"
     gridtolerance="10"
     guidetolerance="10"
     inkscape:pageopacity="0"
     inkscape:pageshadow="2"
     inkscape:window-width="1706"
     inkscape:window-height="773"
     id="namedview3451"
     showgrid="false"
     showguides="true"
     inkscape:guide-bbox="true"
     inkscape:zoom="24.166667"
     inkscape:cx="-8.6602069"
     inkscape:cy="4.8921364"
     inkscape:window-x="1994"
     inkscape:window-y="83"
     inkscape:window-maximized="0"
     inkscape:current-layer="layer4">
    <sodipodi:guide
       position="18.687764,23.761368"
       orientation="1,0"
       id="guide4400" />
    <sodipodi:guide
       position="2.0415393,17.901599"
       orientation="0,-1"
       id="guide4402" />
    <sodipodi:guide
       position="8.5517241,19.972414"
       orientation="0,-1"
       id="guide4458" />
    <sodipodi:guide
       position="14.649302,22.185905"
       orientation="1,0"
       id="guide4557" />
    <sodipodi:guide
       position="22.674421,23.176452"
       orientation="1,0"
       id="guide4561" />
    <sodipodi:guide
       position="14.044604,19.02587"
       orientation="0,-1"
       id="guide4578" />
    <sodipodi:guide
       position="14.649302,3.8185581"
       orientation="1,0"
       id="guide4580" />
    <sodipodi:guide
       position="15.52709,15.007552"
       orientation="0,-1"
       id="guide4582" />
    <sodipodi:guide
       position="14.649302,13.837169"
       orientation="0,-1"
       id="guide4584" />
    <sodipodi:guide
       position="16.287839,20.547368"
       orientation="1,0"
       id="guide4586" />
    <sodipodi:guide
       position="21.008386,21.522688"
       orientation="1,0"
       id="guide4588" />
    <sodipodi:guide
       position="4.6230154,21.34713"
       orientation="0,-1"
       id="guide4590" />
    <sodipodi:guide
       position="13.303361,16.568064"
       orientation="0,-1"
       id="guide4592" />
  </sodipodi:namedview>
  <path
     d="M0 0h24v24H0V0z"
     fill="none"
     id="path3445" />
  <g
     inkscape:groupmode="layer"
     id="layer1"
     inkscape:label="Layer 1"
     style="display:inline">
    <ellipse
       style="fill:none;fill-opacity:1;stroke:#3f51b5;stroke-width:2.15553;stroke-linecap:square;stroke-linejoin:round;stroke-miterlimit:4;stroke-dasharray:none;stroke-opacity:1"
       id="path4434"
       cx="12.334313"
       cy="13.269735"
       rx="8.3493137"
       ry="8.2740831" />
  </g>
  <g
     inkscape:groupmode="layer"
     id="layer3"
     inkscape:label="Layer 2"
     style="display:inline">
    <rect
       style="fill:#ffffff;fill-opacity:1;stroke:#000000;stroke-width:0;stroke-linecap:square;stroke-linejoin:round;stroke-miterlimit:4;stroke-dasharray:none;stroke-opacity:1"
       id="rect4387"
       width="10.665945"
       height="4.7790666"
       x="13.303361"
       y="2.6528699" />
    <rect
       style="fill:#ffffff;fill-opacity:1;stroke:#000000;stroke-width:0;stroke-linecap:square;stroke-linejoin:round;stroke-miterlimit:4;stroke-dasharray:none;stroke-opacity:1"
       id="rect4389"
       width="0.093877956"
       height="3.1722739"
       x="17.248331"
       y="0.8132804" />
    <rect
       y="-21.008387"
       x="0.026504362"
       height="4.7205467"
       width="10.136327"
       id="rect4387-1"
       style="display:inline;fill:#ffffff;fill-opacity:1;stroke:#000000;stroke-width:0;stroke-linecap:square;stroke-linejoin:round;stroke-miterlimit:4;stroke-dasharray:none;stroke-opacity:1"
       transform="rotate(90)" />
  </g>
  <g
     inkscape:groupmode="layer"
     id="layer4"
     inkscape:label="Layer 3"
     style="display:inline">
    <rect
       y="-22.674421"
       x="4.027586"
       height="8.0099697"
       width="2.0574682"
       id="rect4398-0"
       style="display:inline;fill:#3f51b5;fill-opacity:1;stroke:#3f51b5;stroke-width:0;stroke-linecap:square;stroke-linejoin:round;stroke-miterlimit:4;stroke-dasharray:none;stroke-opacity:1"
       transform="rotate(90)" />
    <rect
       transform="scale(-1)"
       style="display:inline;fill:#3f51b5;fill-opacity:1;stroke:#000000;stroke-width:0;stroke-linecap:square;stroke-linejoin:round;stroke-miterlimit:4;stroke-dasharray:none;stroke-opacity:1"
       id="rect4398-0-6"
       width="2.0574682"
       height="8.0099697"
       x="-19.715546"
       y="-8.9848547" />
  </g>
</svg>
