<?xml version="1.0" encoding="UTF-8" standalone="no"?>
<svg
   xmlns:dc="http://purl.org/dc/elements/1.1/"
   xmlns:cc="http://creativecommons.org/ns#"
   xmlns:rdf="http://www.w3.org/1999/02/22-rdf-syntax-ns#"
   xmlns:svg="http://www.w3.org/2000/svg"
   xmlns="http://www.w3.org/2000/svg"
   xmlns:sodipodi="http://sodipodi.sourceforge.net/DTD/sodipodi-0.dtd"
   xmlns:inkscape="http://www.inkscape.org/namespaces/inkscape"
   inkscape:version="1.0 (6e3e5246a0, 2020-05-07)"
   sodipodi:docname="add_text.svg"
   id="svg4543"
   version="1.1"
   height="18px"
   width="18px"
   fill="black"
   viewBox="0 0 24 24">
  <metadata
     id="metadata4549">
    <rdf:RDF>
      <cc:Work
         rdf:about="">
        <dc:format>image/svg+xml</dc:format>
        <dc:type
           rdf:resource="http://purl.org/dc/dcmitype/StillImage" />
      </cc:Work>
    </rdf:RDF>
  </metadata>
  <defs
     id="defs4547">
    <clipPath
       id="clipPath4716"
       clipPathUnits="userSpaceOnUse">
      <path
         d="M 0,0 V 24 H 24 V 0 Z m 12.369791,12.981771 c 0.110792,5.38e-4 0.219295,0.01397 0.317709,0.03385 0.114914,0.02321 0.219883,0.0764 0.330729,0.114583 0.03295,0.01738 0.04372,0.02262 0.0651,0.03386 0.164633,-0.02533 0.342628,-0.01904 0.559896,0.05208 0.4564,0.149397 0.632043,0.52529 0.763022,0.916666 0.06335,0.08913 0.122573,0.181593 0.195312,0.263021 0.120853,0.135291 0.483318,0.413179 0.598958,0.505208 0.176944,0.140823 0.440026,0.3417 0.614583,0.5 0.06989,0.06339 0.133341,0.131654 0.200521,0.197918 0.02371,0.02852 0.04655,0.05749 0.07031,0.08593 -0.159531,-0.09015 -0.319524,-0.190355 -0.497396,-0.234375 -0.115,-0.02847 -0.419831,-0.07685 -0.356771,0.02344 0.035,0.05565 0.04624,0.07592 0.05989,0.09896 0.163765,0.176544 0.331616,0.348932 0.492188,0.53125 0.06197,0.07037 0.127706,0.135718 0.190104,0.205729 0.01027,0.0116 0.01924,0.02421 0.02864,0.03645 0.268008,0.08219 0.444314,0.206402 0.630208,0.408854 0.04881,0.05317 0.09379,0.109146 0.140625,0.164062 1.259391,1.476495 0.0031,2.817803 -1.283853,1.583334 -0.134684,0.04936 -0.2931,0.103293 -0.296876,0.06511 -0.139011,0.04031 -0.301019,0.08053 -0.549479,0.14323 -0.11296,0.02849 -0.229287,-0.04859 -0.343751,-0.07031 -0.05987,-0.01133 -0.12076,-0.01576 -0.179686,-0.03125 -0.181028,-0.04757 -0.419124,-0.130134 -0.604167,-0.192708 -0.36283,-0.121307 -0.182852,-0.08365 -0.481772,-0.117187 -0.07696,-0.0087 -0.154627,-0.01944 -0.23177,-0.02604 -0.054,0.02696 -0.10903,0.05432 -0.161459,0.08073 -0.116494,0.05867 -0.2436,0.0894 -0.369791,0.1224 -0.345971,0.09048 -0.482296,0.08751 -0.835938,0.1224 -0.05898,2.3e-4 -0.40192,-0.0044 -0.526042,0.01307 -0.142603,0.01991 -0.04823,0.02223 -0.164062,0.05729 -0.213656,0.06468 -0.236464,0.06007 -0.455729,0.09375 0.650155,0.25606 0.167712,0.124667 -0.223959,0.0079 -0.05703,0.0048 -0.1437861,0.0035 -0.195312,0.0079 -0.2946417,0.02521 -0.3388385,0.02075 -0.6328125,0.02604 C 8.8274499,18.791388 8.479774,18.683028 8.1275904,18.50277 7.9244391,18.571037 7.6905117,18.617357 7.4088405,18.617357 H 7.0572916 6.9609373 c -0.053517,0.0214 -0.107848,0.04132 -0.1614582,0.06249 -0.1744168,0.04863 -0.3632675,0.06525 -0.5494792,0.05208 -0.1697311,0.05564 -0.351421,0.143891 -0.5026042,0.06511 -1.342935,-0.699957 -1.010634,-0.776339 -0.6692708,-1.804687 0.077784,-0.07428 0.1536714,-0.147329 0.2291667,-0.223958 0.042136,-0.04276 0.074391,-0.09613 0.119792,-0.135418 0.039121,-0.03385 0.079657,-0.0662 0.119792,-0.09896 -0.047952,-0.301786 -0.043395,-0.47855 0.1927084,-0.494792 9.13e-5,-0.0081 0.00253,-0.01 0.0026,-0.01823 0.056488,2.81e-4 0.1127827,-5.07e-4 0.1692709,0 0.015807,1.41e-4 0.016183,0.0048 0.031249,0.0052 0.022693,4.7e-4 0.022044,-0.0032 0.046875,-0.0027 0.029727,9.17e-4 0.017517,0.0068 0.041667,0.0079 0.070116,-0.0079 0.1404277,-0.02113 0.2109375,-0.02344 0.013213,-4.31e-4 0.045367,0.01569 0.0625,0.01823 0.035668,1.79e-4 0.051981,2.54e-4 0.088541,0 0.010253,-0.02172 0.020664,-0.04345 0.031249,-0.06511 0.082627,-0.110227 0.156841,-0.226918 0.2473958,-0.33073 0.00388,-0.0044 0.00908,-0.0084 0.013027,-0.01307 -0.01048,-0.719842 0.4594162,-1.096864 0.9947916,-0.981772 -0.032887,-0.123867 -0.050923,-0.247906 -0.00521,-0.359375 0.1704679,-0.415644 0.6188931,-0.668369 1.0078124,-0.893229 0.073573,-0.04253 0.1568196,-0.04595 0.2447916,-0.03385 0.087972,0.01213 0.178884,0.04012 0.2630208,0.05208 0.6892504,0.09811 0.9380164,0.230395 1.6171874,0.476563 0.159143,0.09895 0.263932,0.160545 0.380208,0.229167 -0.0087,-0.22525 0.02449,-0.424562 0.289063,-0.765626 0.203507,-0.262488 0.560859,-0.361079 0.893233,-0.359463 z M 15.989584,18.25 c -0.0039,0.0033 -0.0035,0.0071 -0.0079,0.0104 -0.0051,-0.0028 0.03867,-0.0051 0.02344,-0.0079 -0.0083,-0.0013 -0.0075,-0.001 -0.01563,-0.0027 z m -3.388022,0.01823 c -0.02761,9e-4 -0.110569,0.0057 -0.08333,0.0104 0.03023,0.0052 0.06318,-0.0051 0.09375,-0.0079 l 0.0026,-0.0027 c -0.0043,1.4e-4 -0.0087,-1.46e-4 -0.01303,0 z"
         style="fill:#ff0000;fill-opacity:1;fill-rule:nonzero;stroke:none;stroke-width:1.33333"
         id="path4718" />
    </clipPath>
    <clipPath
       id="clipPath4726"
       clipPathUnits="userSpaceOnUse">
      <path
         d="M 2,0.99999997 V 22 H 23 V 0.99999997 Z M 12.369791,12.981771 c 0.110792,5.38e-4 0.219295,0.01397 0.317709,0.03385 0.114914,0.02321 0.219883,0.0764 0.330729,0.114583 0.03295,0.01738 0.04372,0.02262 0.0651,0.03386 0.164633,-0.02533 0.342628,-0.01904 0.559896,0.05208 0.4564,0.149397 0.632043,0.52529 0.763022,0.916666 0.06335,0.08913 0.122573,0.181593 0.195312,0.263021 0.120853,0.135291 0.483318,0.413179 0.598958,0.505208 0.176944,0.140823 0.440026,0.3417 0.614583,0.5 0.06989,0.06339 0.133341,0.131654 0.200521,0.197918 0.02371,0.02852 0.04655,0.05749 0.07031,0.08593 -0.159531,-0.09015 -0.319524,-0.190355 -0.497396,-0.234375 -0.115,-0.02847 -0.419831,-0.07685 -0.356771,0.02344 0.035,0.05565 0.04624,0.07592 0.05989,0.09896 0.163765,0.176544 0.331616,0.348932 0.492188,0.53125 0.06197,0.07037 0.127706,0.135718 0.190104,0.205729 0.01027,0.0116 0.01924,0.02421 0.02864,0.03645 0.268008,0.08219 0.444314,0.206402 0.630208,0.408854 0.04881,0.05317 0.09379,0.109146 0.140625,0.164062 1.259391,1.476495 0.0031,2.817803 -1.283853,1.583334 -0.134684,0.04936 -0.2931,0.103293 -0.296876,0.06511 -0.139011,0.04031 -0.301019,0.08053 -0.549479,0.14323 -0.11296,0.02849 -0.229287,-0.04859 -0.343751,-0.07031 -0.05987,-0.01133 -0.12076,-0.01576 -0.179686,-0.03125 -0.181028,-0.04757 -0.419124,-0.130134 -0.604167,-0.192708 -0.36283,-0.121307 -0.182852,-0.08365 -0.481772,-0.117187 -0.07696,-0.0087 -0.154627,-0.01944 -0.23177,-0.02604 -0.054,0.02696 -0.10903,0.05432 -0.161459,0.08073 -0.116494,0.05867 -0.2436,0.0894 -0.369791,0.1224 -0.345971,0.09048 -0.482296,0.08751 -0.835938,0.1224 -0.05898,2.3e-4 -0.40192,-0.0044 -0.526042,0.01307 -0.142603,0.01991 -0.04823,0.02223 -0.164062,0.05729 -0.213656,0.06468 -0.236464,0.06007 -0.455729,0.09375 0.650155,0.25606 0.167712,0.124667 -0.223959,0.0079 -0.05703,0.0048 -0.1437861,0.0035 -0.195312,0.0079 -0.2946417,0.02521 -0.3388385,0.02075 -0.6328125,0.02604 C 8.8274499,18.791388 8.479774,18.683028 8.1275904,18.50277 7.9244391,18.571037 7.6905117,18.617357 7.4088405,18.617357 H 7.0572916 6.9609373 c -0.053517,0.0214 -0.107848,0.04132 -0.1614582,0.06249 -0.1744168,0.04863 -0.3632675,0.06525 -0.5494792,0.05208 -0.1697311,0.05564 -0.351421,0.143891 -0.5026042,0.06511 -1.342935,-0.699957 -1.010634,-0.776339 -0.6692708,-1.804687 0.077784,-0.07428 0.1536714,-0.147329 0.2291667,-0.223958 0.042136,-0.04276 0.074391,-0.09613 0.119792,-0.135418 0.039121,-0.03385 0.079657,-0.0662 0.119792,-0.09896 -0.047952,-0.301786 -0.043395,-0.47855 0.1927084,-0.494792 9.13e-5,-0.0081 0.00253,-0.01 0.0026,-0.01823 0.056488,2.81e-4 0.1127827,-5.07e-4 0.1692709,0 0.015807,1.41e-4 0.016183,0.0048 0.031249,0.0052 0.022693,4.7e-4 0.022044,-0.0032 0.046875,-0.0027 0.029727,9.17e-4 0.017517,0.0068 0.041667,0.0079 0.070116,-0.0079 0.1404277,-0.02113 0.2109375,-0.02344 0.013213,-4.31e-4 0.045367,0.01569 0.0625,0.01823 0.035668,1.79e-4 0.051981,2.54e-4 0.088541,0 0.010253,-0.02172 0.020664,-0.04345 0.031249,-0.06511 0.082627,-0.110227 0.156841,-0.226918 0.2473958,-0.33073 0.00388,-0.0044 0.00908,-0.0084 0.013027,-0.01307 -0.01048,-0.719842 0.4594162,-1.096864 0.9947916,-0.981772 -0.032887,-0.123867 -0.050923,-0.247906 -0.00521,-0.359375 0.1704679,-0.415644 0.6188931,-0.668369 1.0078124,-0.893229 0.073573,-0.04253 0.1568196,-0.04595 0.2447916,-0.03385 0.087972,0.01213 0.178884,0.04012 0.2630208,0.05208 0.6892504,0.09811 0.9380164,0.230395 1.6171874,0.476563 0.159143,0.09895 0.263932,0.160545 0.380208,0.229167 -0.0087,-0.22525 0.02449,-0.424562 0.289063,-0.765626 0.203507,-0.262488 0.560859,-0.361079 0.893233,-0.359463 z M 15.989584,18.25 c -0.0039,0.0033 -0.0035,0.0071 -0.0079,0.0104 -0.0051,-0.0028 0.03867,-0.0051 0.02344,-0.0079 -0.0083,-0.0013 -0.0075,-0.001 -0.01563,-0.0027 z m -3.388022,0.01823 c -0.02761,9e-4 -0.110569,0.0057 -0.08333,0.0104 0.03023,0.0052 0.06318,-0.0051 0.09375,-0.0079 l 0.0026,-0.0027 c -0.0043,1.4e-4 -0.0087,-1.46e-4 -0.01303,0 z"
         style="fill:#ff0000;fill-opacity:1;fill-rule:nonzero;stroke:none;stroke-width:1.33333"
         id="path4728" />
    </clipPath>
  </defs>
  <sodipodi:namedview
     inkscape:current-layer="svg4543"
     inkscape:window-maximized="1"
     inkscape:window-y="0"
     inkscape:window-x="1920"
     inkscape:cy="13.091182"
     inkscape:cx="-3.7571056"
     inkscape:zoom="24.166667"
     inkscape:guide-bbox="true"
     showguides="true"
     showgrid="false"
     id="namedview4545"
     inkscape:window-height="1043"
     inkscape:window-width="1920"
     inkscape:pageshadow="2"
     inkscape:pageopacity="0"
     guidetolerance="10"
     gridtolerance="10"
     objecttolerance="10"
     borderopacity="1"
     bordercolor="#666666"
     pagecolor="#ffffff">
    <sodipodi:guide
       id="guide4551"
       orientation="0,-1"
       position="6.4551724,20.027586" />
    <sodipodi:guide
       id="guide4553"
       orientation="0,-1"
       position="2.3602737,18.128575" />
    <sodipodi:guide
       id="guide4555"
       orientation="1,0"
       position="14.980911,19.435504" />
    <sodipodi:guide
       id="guide4559"
       orientation="1,0"
       position="22.998038,19.220933" />
  </sodipodi:namedview>
  <path
     clip-path="url(#clipPath4716)"
     id="path4539"
     fill="none"
     d="M0 0h24v24H0V0z" />
  <path
     style="fill:#3f51b5;fill-opacity:1"
     clip-path="url(#clipPath4726)"
     id="path4541"
     d="M18 20H4V6h9V4H4c-1.1 0-2 .9-2 2v14c0 1.1.9 2 2 2h14c1.1 0 2-.9 2-2v-9h-2v9zm-7.79-3.17l-1.96-2.36L5.5 18h11l-3.54-4.71zM20 4V1h-2v3h-3c.01.01 0 2 0 2h3v2.99c.01.01 2 0 2 0V6h3V4h-3z" />
  <g
     style="font-style:italic;font-variant:normal;font-weight:bold;font-stretch:normal;font-size:21.3333px;line-height:1.25;font-family:FreeMono;-inkscape-font-specification:'FreeMono Bold Italic';display:inline;fill:#3f51b5;fill-opacity:1;stroke:none;stroke-width:1.33333"
     id="text4596"
     aria-label="T">
    <path
       d="m 5.6638606,18.388253 q 0,-0.511999 0.3839994,-0.895999 0.3839994,-0.383999 1.279998,-0.383999 H 8.6931892 L 10.44252,8.9376011 H 8.1598567 l -0.426666,1.9839969 q -0.2773329,1.087998 -0.8746653,1.322664 -0.2346663,0.08533 -0.4906659,0.08533 -0.3413328,0 -0.5973324,-0.234667 -0.2559996,-0.234666 -0.2559996,-0.554665 0,-0.277333 0.085333,-0.618666 L 6.474526,6.8042711 h 11.007983 l -0.874666,4.1173269 q -0.298666,1.407998 -1.365331,1.407998 -0.362666,0 -0.618666,-0.213333 -0.234666,-0.234667 -0.234666,-0.575999 0,-0.256 0.08533,-0.618666 L 14.901179,8.9376011 H 12.57585 l -1.749331,8.1706539 h 1.407998 q 0.597332,0 0.895998,0.170666 0.32,0.170667 0.32,0.661332 0,0.490666 -0.383999,0.895999 -0.384,0.405333 -1.279998,0.405333 H 6.8585254 q -1.1946648,0 -1.1946648,-0.853332 z"
       style="font-style:italic;font-variant:normal;font-weight:bold;font-stretch:normal;font-size:21.3333px;font-family:FreeMono;-inkscape-font-specification:'FreeMono Bold Italic';fill:#3f51b5;fill-opacity:1;stroke-width:1.33333"
       id="path4781" />
  </g>
</svg>
