<?xml version="1.0" encoding="UTF-8" standalone="no"?>
<svg
   xmlns:dc="http://purl.org/dc/elements/1.1/"
   xmlns:cc="http://creativecommons.org/ns#"
   xmlns:rdf="http://www.w3.org/1999/02/22-rdf-syntax-ns#"
   xmlns:svg="http://www.w3.org/2000/svg"
   xmlns="http://www.w3.org/2000/svg"
   xmlns:sodipodi="http://sodipodi.sourceforge.net/DTD/sodipodi-0.dtd"
   xmlns:inkscape="http://www.inkscape.org/namespaces/inkscape"
   inkscape:version="1.0 (6e3e5246a0, 2020-05-07)"
   sodipodi:docname="add_photo1.svg"
   id="svg8086"
   version="1.1"
   height="18px"
   width="18px"
   fill="black"
   viewBox="0 0 24 24">
  <metadata
     id="metadata8092">
    <rdf:RDF>
      <cc:Work
         rdf:about="">
        <dc:format>image/svg+xml</dc:format>
        <dc:type
           rdf:resource="http://purl.org/dc/dcmitype/StillImage" />
        <dc:title></dc:title>
      </cc:Work>
    </rdf:RDF>
  </metadata>
  <defs
     id="defs8090" />
  <sodipodi:namedview
     inkscape:current-layer="svg8086"
     inkscape:window-maximized="1"
     inkscape:window-y="0"
     inkscape:window-x="1920"
     inkscape:cy="9"
     inkscape:cx="4.8517241"
     inkscape:zoom="48.333333"
     showgrid="false"
     id="namedview8088"
     inkscape:window-height="1043"
     inkscape:window-width="1920"
     inkscape:pageshadow="2"
     inkscape:pageopacity="0"
     guidetolerance="10"
     gridtolerance="10"
     objecttolerance="10"
     borderopacity="1"
     bordercolor="#666666"
     pagecolor="#ffffff" />
  <path
     id="path8082"
     fill="none"
     d="M0 0h24v24H0V0z" />
  <path
     style="fill:#3f51b5;fill-opacity:1"
     id="path8084"
     d="M18 20H4V6h9V4H4c-1.1 0-2 .9-2 2v14c0 1.1.9 2 2 2h14c1.1 0 2-.9 2-2v-9h-2v9zm-7.79-3.17l-1.96-2.36L5.5 18h11l-3.54-4.71zM20 4V1h-2v3h-3c.01.01 0 2 0 2h3v2.99c.01.01 2 0 2 0V6h3V4h-3z" />
</svg>
