<?xml version="1.0" encoding="UTF-8" standalone="no"?>
<svg
   xmlns:dc="http://purl.org/dc/elements/1.1/"
   xmlns:cc="http://creativecommons.org/ns#"
   xmlns:rdf="http://www.w3.org/1999/02/22-rdf-syntax-ns#"
   xmlns:svg="http://www.w3.org/2000/svg"
   xmlns="http://www.w3.org/2000/svg"
   xmlns:sodipodi="http://sodipodi.sourceforge.net/DTD/sodipodi-0.dtd"
   xmlns:inkscape="http://www.inkscape.org/namespaces/inkscape"
   inkscape:version="1.0 (6e3e5246a0, 2020-05-07)"
   sodipodi:docname="cleaning_services-black-18dp.svg"
   id="svg7583"
   version="1.1"
   height="18px"
   width="18px"
   fill="black"
   viewBox="0 0 24 24"
   enable-background="new 0 0 24 24">
  <metadata
     id="metadata7589">
    <rdf:RDF>
      <cc:Work
         rdf:about="">
        <dc:format>image/svg+xml</dc:format>
        <dc:type
           rdf:resource="http://purl.org/dc/dcmitype/StillImage" />
      </cc:Work>
    </rdf:RDF>
  </metadata>
  <defs
     id="defs7587" />
  <sodipodi:namedview
     inkscape:current-layer="svg7583"
     inkscape:window-maximized="0"
     inkscape:window-y="27"
     inkscape:window-x="70"
     inkscape:cy="9"
     inkscape:cx="4.9358108"
     inkscape:zoom="49.333333"
     showgrid="false"
     id="namedview7585"
     inkscape:window-height="970"
     inkscape:window-width="1000"
     inkscape:pageshadow="2"
     inkscape:pageopacity="0"
     guidetolerance="10"
     gridtolerance="10"
     objecttolerance="10"
     borderopacity="1"
     bordercolor="#666666"
     pagecolor="#ffffff" />
  <g
     id="g7577">
    <rect
       id="rect7575"
       width="24"
       height="24"
       fill="none" />
  </g>
  <g
     style="fill:#dc3545;fill-opacity:1"
     id="g7581">
    <path
       style="fill:#dc3545;fill-opacity:1"
       id="path7579"
       d="M16,11h-1V3c0-1.1-0.9-2-2-2h-2C9.9,1,9,1.9,9,3v8H8c-2.76,0-5,2.24-5,5v7h18v-7C21,13.24,18.76,11,16,11z M19,21h-2v-3 c0-0.55-0.45-1-1-1s-1,0.45-1,1v3h-2v-3c0-0.55-0.45-1-1-1s-1,0.45-1,1v3H9v-3c0-0.55-0.45-1-1-1s-1,0.45-1,1v3H5v-5 c0-1.65,1.35-3,3-3h8c1.65,0,3,1.35,3,3V21z" />
  </g>
</svg>
