<?xml version="1.0" encoding="UTF-8" standalone="no"?>
<svg
   xmlns:dc="http://purl.org/dc/elements/1.1/"
   xmlns:cc="http://creativecommons.org/ns#"
   xmlns:rdf="http://www.w3.org/1999/02/22-rdf-syntax-ns#"
   xmlns:svg="http://www.w3.org/2000/svg"
   xmlns="http://www.w3.org/2000/svg"
   xmlns:sodipodi="http://sodipodi.sourceforge.net/DTD/sodipodi-0.dtd"
   xmlns:inkscape="http://www.inkscape.org/namespaces/inkscape"
   sodipodi:docname="height1.svg"
   inkscape:version="1.0 (6e3e5246a0, 2020-05-07)"
   id="svg1654"
   version="1.1"
   viewBox="0 0 10.583333 26.458334"
   height="100"
   width="40">
  <defs
     id="defs1648" />
  <sodipodi:namedview
     inkscape:window-maximized="1"
     inkscape:window-y="27"
     inkscape:window-x="70"
     inkscape:window-height="1016"
     inkscape:window-width="1850"
     inkscape:guide-bbox="true"
     showguides="true"
     inkscape:showpageshadow="false"
     units="px"
     showgrid="false"
     inkscape:document-rotation="0"
     inkscape:current-layer="layer1"
     inkscape:document-units="px"
     inkscape:cy="61.800318"
     inkscape:cx="78.072714"
     inkscape:zoom="7.9195959"
     inkscape:pageshadow="2"
     inkscape:pageopacity="0.0"
     borderopacity="1.0"
     bordercolor="#666666"
     pagecolor="#ffffff"
     id="base">
    <sodipodi:guide
       id="guide1666"
       orientation="1,0"
       position="5.2451643,19.008196" />
  </sodipodi:namedview>
  <metadata
     id="metadata1651">
    <rdf:RDF>
      <cc:Work
         rdf:about="">
        <dc:format>image/svg+xml</dc:format>
        <dc:type
           rdf:resource="http://purl.org/dc/dcmitype/StillImage" />
        <dc:title></dc:title>
      </cc:Work>
    </rdf:RDF>
  </metadata>
  <g
     id="layer1"
     inkscape:groupmode="layer"
     inkscape:label="Warstwa 1">
    <path
       id="path1573-7"
       d="m 7.0108847,25.081136 c -0.03366,-0.0079 -6.35681601,0.02431 -6.48703401,0.03293 -0.0763,0.005 -0.101968,0.07401 -0.223816,0.601028 -0.0757,0.327428 -0.122192,0.599367 -0.103307,0.604312 0.01886,0.005 1.50284701,0.0045 3.29774501,-8.73e-4 l 3.263451,-0.0099 0.141114,-0.610391 c 0.07761,-0.335715 0.127962,-0.613431 0.111885,-0.617149 z"
       style="fill:#000000;stroke:#000000;stroke-width:0.377976;stroke-linecap:square;stroke-linejoin:round;stroke-miterlimit:4;stroke-dasharray:none" />
    <path
       id="path1573-5"
       d="M 3.2988915,25.847254 C 3.3074044,25.710712 6.173518,1.4844805 6.2392914,0.99309467 6.2778318,0.70518033 6.3478654,0.67194823 6.849713,0.70323679 7.1615036,0.72267592 7.4131047,0.80162101 7.4088305,0.87861415 7.4045318,0.95564494 6.7379621,6.6480808 5.9275149,13.528473 L 4.4539742,26.038295 3.8727368,26.002057 c -0.3196813,-0.01993 -0.5779121,-0.08957 -0.573846,-0.154793 z"
       style="fill:#000000;stroke:#000000;stroke-width:0.725046;stroke-linecap:square;stroke-linejoin:round;stroke-miterlimit:4;stroke-dasharray:none" />
    <path
       style="fill:#000000;stroke:#000000;stroke-width:0.377976;stroke-linecap:square;stroke-linejoin:round;stroke-miterlimit:4;stroke-dasharray:none"
       d="m 10.349854,0.20714922 c -0.03366,-0.0079 -6.356816,0.02431 -6.487034,0.03293 -0.0763,0.005 -0.101968,0.07401 -0.223816,0.601028 -0.0757,0.32742808 -0.122192,0.59936708 -0.103307,0.60431208 0.01886,0.005 1.502847,0.0045 3.297745,-8.704e-4 l 3.263451,-0.0099 0.141114,-0.61039108 c 0.07761,-0.335715 0.127962,-0.613431 0.111885,-0.617149 z"
       id="path1573-7-3" />
  </g>
</svg>
